<svg width="16" height="18" viewBox="0 0 16 18" fill="none" xmlns="http://www.w3.org/2000/svg">
<path d="M13.8333 2.33341H13V0.666748H11.3333V2.33341H4.66667V0.666748H3V2.33341H2.16667C1.25 2.33341 0.5 3.08341 0.5 4.00008V15.6667C0.5 16.5834 1.25 17.3334 2.16667 17.3334H13.8333C14.75 17.3334 15.5 16.5834 15.5 15.6667V4.00008C15.5 3.08341 14.75 2.33341 13.8333 2.33341ZM13.8333 15.6667H2.16667V7.33342H13.8333V15.6667ZM2.16667 5.66675V4.00008H13.8333V5.66675H2.16667ZM6.8 14.3834L11.7417 9.44175L10.8583 8.55842L6.8 12.6167L5.04167 10.8584L4.15833 11.7417L6.8 14.3834Z" fill="#79747E"/>
</svg>
