<svg width="20" height="20" viewBox="0 0 20 20" fill="none" xmlns="http://www.w3.org/2000/svg">
<path d="M15.8333 3.33341H15V1.66675H13.3333V3.33341H6.66667V1.66675H5V3.33341H4.16667C3.25 3.33341 2.5 4.08341 2.5 5.00008V16.6667C2.5 17.5834 3.25 18.3334 4.16667 18.3334H15.8333C16.75 18.3334 17.5 17.5834 17.5 16.6667V5.00008C17.5 4.08341 16.75 3.33341 15.8333 3.33341ZM15.8333 16.6667H4.16667V8.33342H15.8333V16.6667ZM4.16667 6.66675V5.00008H15.8333V6.66675H4.16667Z" fill="#79747E"/>
<path d="M7.47167 11.8714H8.13899C8.30989 11.8714 8.44959 11.8416 8.55809 11.7819C8.66931 11.7195 8.75205 11.6327 8.8063 11.5215C8.86056 11.4076 8.88768 11.2733 8.88768 11.1187C8.88768 10.9993 8.86191 10.8894 8.81037 10.7891C8.76155 10.6887 8.68559 10.6087 8.58251 10.549C8.47943 10.4866 8.34786 10.4554 8.18782 10.4554C8.07931 10.4554 7.97351 10.4785 7.87043 10.5246C7.76735 10.568 7.6819 10.6304 7.61408 10.7118C7.54898 10.7931 7.51643 10.8921 7.51643 11.0088H6.1411C6.1411 10.6724 6.23333 10.3849 6.4178 10.1462C6.60497 9.90473 6.85047 9.72027 7.15429 9.59277C7.46082 9.46257 7.79041 9.39746 8.14306 9.39746C8.56352 9.39746 8.93244 9.46257 9.24983 9.59277C9.56721 9.72027 9.81406 9.91016 9.99039 10.1624C10.1694 10.412 10.2589 10.7212 10.2589 11.0902C10.2589 11.2936 10.2115 11.4849 10.1165 11.6639C10.0216 11.8429 9.88866 12.0003 9.71776 12.1359C9.54686 12.2715 9.31161 12.3648 9.31161 12.3648L8.36685 12.2091H7.47167V12.5713V11.8714ZM7.47167 12.8927V12.2091H8.36685L9.31161 12.3648C9.31161 12.3648 9.63096 12.4736 9.80728 12.6038C9.9836 12.734 10.1192 12.8955 10.2142 13.0881C10.3091 13.2779 10.3566 13.4963 10.3566 13.7432C10.3566 14.0199 10.301 14.2667 10.1898 14.4837C10.0785 14.7007 9.92257 14.8838 9.72183 15.033C9.52109 15.1822 9.28645 15.2962 9.01789 15.3748C8.74934 15.4508 8.45773 15.4888 8.14306 15.4888C7.8962 15.4888 7.64935 15.4562 7.4025 15.3911C7.15564 15.3233 6.93049 15.2202 6.72704 15.0819C6.52359 14.9408 6.35947 14.7618 6.23469 14.5448C6.11262 14.325 6.05158 14.0633 6.05158 13.7594H7.42691C7.42691 13.8842 7.46082 13.9982 7.52864 14.1012C7.59916 14.2016 7.69275 14.2816 7.8094 14.3413C7.92604 14.401 8.05218 14.4308 8.18782 14.4308C8.356 14.4308 8.49842 14.3996 8.61506 14.3372C8.73442 14.2721 8.82529 14.1853 8.88768 14.0768C8.95008 13.9683 8.98127 13.8476 8.98127 13.7147C8.98127 13.5139 8.94736 13.3539 8.87955 13.2345C8.81444 13.1152 8.71814 13.0284 8.59065 12.9741C8.46586 12.9199 8.31531 12.8927 8.13899 12.8927H7.47167Z" fill="#79747E"/>
<path d="M13.9484 9.48291V15.4074H12.5772V11.0291L11.2262 11.4238V10.3822L13.8223 9.48291H13.9484Z" fill="#79747E"/>
</svg>
