<svg width="20" height="20" viewBox="0 0 20 20" fill="none" xmlns="http://www.w3.org/2000/svg">
<path d="M15.8335 3.33341H15.0002V1.66675H13.3335V3.33341H6.66683V1.66675H5.00016V3.33341H4.16683C3.25016 3.33341 2.50016 4.08341 2.50016 5.00008C2.50016 5.00008 2.50016 9.08341 2.50016 10.0001V16.6667H6.66683V18.3334C7.5835 18.3334 15.8335 18.3334 15.8335 18.3334C16.7502 18.3334 17.5002 17.5834 17.5002 16.6667V5.00008C17.5002 4.08341 16.7502 3.33341 15.8335 3.33341ZM15.8335 16.6667H6.66683H2.50016V10.0001H4.16683V8.33342H15.8335V16.6667ZM4.16683 6.66675V5.00008H15.8335V6.66675H4.16683Z" fill="#79747E"/>
<path d="M0.833496 15.0001L3.9585 18.3334L5.00016 17.2223L2.91683 15.0001L5.00016 12.7779L3.9585 11.6667L0.833496 15.0001Z" fill="#79747E"/>
<path d="M7.47188 11.8714H8.1392C8.3101 11.8714 8.4498 11.8416 8.55831 11.7819C8.66953 11.7195 8.75226 11.6327 8.80652 11.5215C8.86077 11.4076 8.8879 11.2733 8.8879 11.1187C8.8879 10.9993 8.86213 10.8894 8.81059 10.7891C8.76176 10.6887 8.6858 10.6087 8.58272 10.549C8.47964 10.4866 8.34808 10.4554 8.18803 10.4554C8.07952 10.4554 7.97373 10.4785 7.87065 10.5246C7.76756 10.568 7.68212 10.6304 7.6143 10.7118C7.54919 10.7931 7.51664 10.8921 7.51664 11.0088H6.14132C6.14132 10.6724 6.23355 10.3849 6.41801 10.1462C6.60518 9.90473 6.85068 9.72027 7.1545 9.59277C7.46103 9.46257 7.79062 9.39746 8.14327 9.39746C8.56373 9.39746 8.93266 9.46257 9.25004 9.59277C9.56742 9.72027 9.81428 9.91016 9.9906 10.1624C10.1696 10.412 10.2592 10.7212 10.2592 11.0902C10.2592 11.2936 10.2117 11.4849 10.1167 11.6639C10.0218 11.8429 9.88888 12.0003 9.71798 12.1359C9.54708 12.2715 9.31182 12.3648 9.31182 12.3648L8.36707 12.2091H7.47188V12.5713V11.8714ZM7.47188 12.8927V12.2091H8.36707L9.31182 12.3648C9.31182 12.3648 9.63117 12.4736 9.8075 12.6038C9.98382 12.734 10.1195 12.8955 10.2144 13.0881C10.3093 13.2779 10.3568 13.4963 10.3568 13.7432C10.3568 14.0199 10.3012 14.2667 10.19 14.4837C10.0788 14.7007 9.92278 14.8838 9.72205 15.033C9.52131 15.1822 9.28666 15.2962 9.01811 15.3748C8.74955 15.4508 8.45794 15.4888 8.14327 15.4888C7.89642 15.4888 7.64956 15.4562 7.40271 15.3911C7.15586 15.3233 6.9307 15.2202 6.72725 15.0819C6.5238 14.9408 6.35969 14.7618 6.2349 14.5448C6.11283 14.325 6.0518 14.0633 6.0518 13.7594H7.42712C7.42712 13.8842 7.46103 13.9982 7.52885 14.1012C7.59938 14.2016 7.69297 14.2816 7.80961 14.3413C7.92626 14.401 8.0524 14.4308 8.18803 14.4308C8.35621 14.4308 8.49863 14.3996 8.61527 14.3372C8.73463 14.2721 8.82551 14.1853 8.8879 14.0768C8.95029 13.9683 8.98149 13.8476 8.98149 13.7147C8.98149 13.5139 8.94758 13.3539 8.87976 13.2345C8.81466 13.1152 8.71836 13.0284 8.59086 12.9741C8.46608 12.9199 8.31552 12.8927 8.1392 12.8927H7.47188Z" fill="#79747E"/>
<path d="M13.9486 9.48291V15.4074H12.5774V11.0291L11.2265 11.4238V10.3822L13.8225 9.48291H13.9486Z" fill="#79747E"/>
<path d="M0.833496 15.0001L3.9585 18.3334L5.00016 17.2223L2.91683 15.0001L5.00016 12.7779L3.9585 11.6667L0.833496 15.0001Z" fill="#79747E"/>
</svg>
