<svg width="20" height="20" viewBox="0 0 20 20" fill="none" xmlns="http://www.w3.org/2000/svg">
<path d="M15.8333 3.33341H15V1.66675H13.3333V3.33341H6.66667V1.66675H5V3.33341H4.16667C3.25 3.33341 2.5 4.08341 2.5 5.00008V16.6667C2.5 17.5834 3.25 18.3334 4.16667 18.3334H15.8333C16.75 18.3334 17.5 17.5834 17.5 16.6667V5.00008C17.5 4.08341 16.75 3.33341 15.8333 3.33341ZM15.8333 16.6667H4.16667V8.33342H15.8333V16.6667ZM4.16667 6.66675V5.00008H15.8333V6.66675H4.16667Z" fill="#79747E"/>
<path d="M12.1362 9.47681V10.2092L9.92269 15.4013H8.47412L10.6917 10.5347H7.86377V9.47681H12.1362Z" fill="#79747E"/>
</svg>
