<svg width="20" height="20" viewBox="0 0 20 20" fill="none" xmlns="http://www.w3.org/2000/svg">
<path d="M15.8335 3.33341H15.0002V1.66675H13.3335V3.33341H6.66683V1.66675H5.00016V3.33341H4.16683C3.25016 3.33341 2.50016 4.08341 2.50016 5.00008C2.50016 5.00008 2.50016 9.08341 2.50016 10.0001V16.6667H6.66683V18.3334C7.5835 18.3334 15.8335 18.3334 15.8335 18.3334C16.7502 18.3334 17.5002 17.5834 17.5002 16.6667V5.00008C17.5002 4.08341 16.7502 3.33341 15.8335 3.33341ZM15.8335 16.6667H6.66683H2.50016V10.0001H4.16683V8.33342H15.8335V16.6667ZM4.16683 6.66675V5.00008H15.8335V6.66675H4.16683Z" fill="#79747E"/>
<path d="M0.833496 15.0001L3.9585 18.3334L5.00016 17.2223L2.91683 15.0001L5.00016 12.7779L3.9585 11.6667L0.833496 15.0001Z" fill="#79747E"/>
<path d="M9.27588 11.8999H9.92285C10.1073 11.8999 10.2592 11.8673 10.3786 11.8022C10.5007 11.7371 10.5902 11.6449 10.6471 11.5256C10.7068 11.4062 10.7367 11.2665 10.7367 11.1064C10.7367 10.9681 10.7095 10.8447 10.6553 10.7362C10.601 10.6277 10.5183 10.5422 10.4071 10.4798C10.2986 10.4147 10.1575 10.3822 9.98389 10.3822C9.8591 10.3822 9.73975 10.4079 9.62581 10.4595C9.51459 10.5083 9.42372 10.5802 9.35319 10.6751C9.28266 10.7674 9.2474 10.8786 9.2474 11.0088H7.9738C7.9738 10.6778 8.06331 10.3917 8.24235 10.1502C8.4241 9.9088 8.66417 9.72298 8.96256 9.59277C9.26367 9.45985 9.59191 9.39339 9.94727 9.39339C10.3569 9.39339 10.7163 9.4585 11.0256 9.5887C11.3375 9.7162 11.5789 9.90609 11.7498 10.1584C11.9234 10.4079 12.0103 10.7172 12.0103 11.0861C12.0103 11.2787 11.9641 11.4645 11.8719 11.6436C11.7824 11.8199 11.6535 11.9772 11.4854 12.1156C11.3199 12.2512 11.1004 12.3634 11.1004 12.3634L10.1304 12.2091H9.27588V12.5591V11.8999ZM9.27588 12.8561V12.2091H10.1304L11.1004 12.3634C11.1004 12.3634 11.4121 12.4872 11.583 12.6201C11.7539 12.753 11.8841 12.9144 11.9736 13.1043C12.0632 13.2942 12.1079 13.5058 12.1079 13.7391C12.1079 14.0158 12.0537 14.2626 11.9452 14.4797C11.8366 14.6967 11.6847 14.8798 11.4894 15.029C11.2941 15.1782 11.0649 15.2921 10.8018 15.3708C10.5386 15.4467 10.2538 15.4847 9.94727 15.4847C9.70041 15.4847 9.45492 15.4508 9.21077 15.383C8.96663 15.3152 8.74555 15.2121 8.54753 15.0737C8.3495 14.9327 8.19081 14.755 8.07145 14.5407C7.95209 14.3237 7.89242 14.066 7.89242 13.7676H9.16602C9.16602 13.9059 9.20128 14.0307 9.27181 14.1419C9.34505 14.2504 9.44406 14.3372 9.56885 14.4023C9.69634 14.4647 9.83469 14.4959 9.98389 14.4959C10.1629 14.4959 10.3148 14.4634 10.4396 14.3983C10.5671 14.3305 10.6634 14.2382 10.7285 14.1216C10.7963 14.0049 10.8302 13.8707 10.8302 13.7188C10.8302 13.5126 10.7936 13.3471 10.7204 13.2223C10.6498 13.0948 10.5468 13.0026 10.4111 12.9456C10.2755 12.886 10.1127 12.8561 9.92285 12.8561H9.27588Z" fill="#79747E"/>
<path d="M0.833496 15.0001L3.9585 18.3334L5.00016 17.2223L2.91683 15.0001L5.00016 12.7779L3.9585 11.6667L0.833496 15.0001Z" fill="#79747E"/>
</svg>
