<svg width="20" height="20" viewBox="0 0 20 20" fill="none" xmlns="http://www.w3.org/2000/svg">
<path d="M15.8335 3.33341H15.0002V1.66675H13.3335V3.33341H6.66683V1.66675H5.00016V3.33341H4.16683C3.25016 3.33341 2.50016 4.08341 2.50016 5.00008C2.50016 5.00008 2.50016 9.08341 2.50016 10.0001V16.6667H6.66683V18.3334C7.5835 18.3334 15.8335 18.3334 15.8335 18.3334C16.7502 18.3334 17.5002 17.5834 17.5002 16.6667V5.00008C17.5002 4.08341 16.7502 3.33341 15.8335 3.33341ZM15.8335 16.6667H6.66683H2.50016V10.0001H4.16683V8.33342H15.8335V16.6667ZM4.16683 6.66675V5.00008H15.8335V6.66675H4.16683Z" fill="#79747E"/>
<path d="M0.833496 15.0001L3.9585 18.3334L5.00016 17.2223L2.91683 15.0001L5.00016 12.7779L3.9585 11.6667L0.833496 15.0001Z" fill="#79747E"/>
<path d="M12.1364 9.47681V10.2092L9.92285 15.4013H8.47428L10.6919 10.5347H7.86393V9.47681H12.1364Z" fill="#79747E"/>
<path d="M0.833496 15.0001L3.9585 18.3334L5.00016 17.2223L2.91683 15.0001L5.00016 12.7779L3.9585 11.6667L0.833496 15.0001Z" fill="#79747E"/>
</svg>
