<svg width="20" height="20" viewBox="0 0 20 20" fill="none" xmlns="http://www.w3.org/2000/svg">
<path d="M15.8333 3.33341H15V1.66675H13.3333V3.33341H6.66667V1.66675H5V3.33341H4.16667C3.25 3.33341 2.5 4.08341 2.5 5.00008V16.6667C2.5 17.5834 3.25 18.3334 4.16667 18.3334H13.3333V16.6667H15.8333V10.0001H17.5V5.00008C17.5 4.08341 16.75 3.33341 15.8333 3.33341ZM13.3333 16.6667H4.16667V8.33342H15.8333V10.0001V16.6667H13.3333ZM4.16667 6.66675V5.00008H15.8333V6.66675H4.16667Z" fill="#79747E"/>
<path d="M19.1667 15.0001L16.0417 18.3334L15 17.2223L17.0833 15.0001L15 12.7779L16.0417 11.6667L19.1667 15.0001Z" fill="#79747E"/>
<path d="M7.47172 11.8714H8.13904C8.30994 11.8714 8.44964 11.8416 8.55815 11.7819C8.66937 11.7195 8.7521 11.6327 8.80636 11.5215C8.86061 11.4076 8.88774 11.2733 8.88774 11.1187C8.88774 10.9993 8.86197 10.8894 8.81042 10.7891C8.7616 10.6887 8.68564 10.6087 8.58256 10.549C8.47948 10.4866 8.34791 10.4554 8.18787 10.4554C8.07936 10.4554 7.97356 10.4785 7.87048 10.5246C7.7674 10.568 7.68195 10.6304 7.61414 10.7118C7.54903 10.7931 7.51648 10.8921 7.51648 11.0088H6.14115C6.14115 10.6724 6.23338 10.3849 6.41785 10.1462C6.60502 9.90473 6.85052 9.72027 7.15434 9.59277C7.46087 9.46257 7.79046 9.39746 8.14311 9.39746C8.56357 9.39746 8.9325 9.46257 9.24988 9.59277C9.56726 9.72027 9.81411 9.91016 9.99044 10.1624C10.1695 10.412 10.259 10.7212 10.259 11.0902C10.259 11.2936 10.2115 11.4849 10.1166 11.6639C10.0216 11.8429 9.88871 12.0003 9.71781 12.1359C9.54692 12.2715 9.31166 12.3648 9.31166 12.3648L8.3669 12.2091H7.47172V12.5713V11.8714ZM7.47172 12.8927V12.2091H8.3669L9.31166 12.3648C9.31166 12.3648 9.63101 12.4736 9.80733 12.6038C9.98366 12.734 10.1193 12.8955 10.2142 13.0881C10.3092 13.2779 10.3566 13.4963 10.3566 13.7432C10.3566 14.0199 10.301 14.2667 10.1898 14.4837C10.0786 14.7007 9.92262 14.8838 9.72188 15.033C9.52115 15.1822 9.2865 15.2962 9.01794 15.3748C8.74939 15.4508 8.45778 15.4888 8.14311 15.4888C7.89625 15.4888 7.6494 15.4562 7.40255 15.3911C7.15569 15.3233 6.93054 15.2202 6.72709 15.0819C6.52364 14.9408 6.35952 14.7618 6.23474 14.5448C6.11267 14.325 6.05164 14.0633 6.05164 13.7594H7.42696C7.42696 13.8842 7.46087 13.9982 7.52869 14.1012C7.59922 14.2016 7.6928 14.2816 7.80945 14.3413C7.92609 14.401 8.05223 14.4308 8.18787 14.4308C8.35605 14.4308 8.49847 14.3996 8.61511 14.3372C8.73447 14.2721 8.82534 14.1853 8.88774 14.0768C8.95013 13.9683 8.98132 13.8476 8.98132 13.7147C8.98132 13.5139 8.94741 13.3539 8.8796 13.2345C8.81449 13.1152 8.71819 13.0284 8.5907 12.9741C8.46592 12.9199 8.31536 12.8927 8.13904 12.8927H7.47172Z" fill="#79747E"/>
<path d="M13.9485 9.48291V15.4074H12.5772V11.0291L11.2263 11.4238V10.3822L13.8223 9.48291H13.9485Z" fill="#79747E"/>
<path d="M19.1667 15.0001L16.0417 18.3334L15 17.2223L17.0833 15.0001L15 12.7779L16.0417 11.6667L19.1667 15.0001Z" fill="#79747E"/>
</svg>
