<svg width="20" height="20" viewBox="0 0 20 20" fill="none" xmlns="http://www.w3.org/2000/svg">
<path d="M11.6667 3.33333V7.5C11.6667 8.43333 11.9751 9.3 12.5001 10H7.50008C8.04175 9.28333 8.33341 8.41666 8.33341 7.5V3.33333H11.6667ZM14.1667 1.66666H5.83341C5.37508 1.66666 5.00008 2.04166 5.00008 2.5C5.00008 2.95833 5.37508 3.33333 5.83341 3.33333H6.66675V7.5C6.66675 8.88333 5.55008 10 4.16675 10V11.6667H9.14175V17.5L9.97508 18.3333L10.8084 17.5V11.6667H15.8334V10C14.4501 10 13.3334 8.88333 13.3334 7.5V3.33333H14.1667C14.6251 3.33333 15.0001 2.95833 15.0001 2.5C15.0001 2.04166 14.6251 1.66666 14.1667 1.66666Z" fill="#79747E"/>
</svg>
