<svg width="18" height="18" viewBox="0 0 18 18" fill="none" xmlns="http://www.w3.org/2000/svg">
<path d="M15.8335 2.33341H15.0002V0.666748H13.3335V2.33341H6.66683V0.666748H5.00016V2.33341H4.16683C3.25016 2.33341 2.50016 3.08341 2.50016 4.00008C2.50016 4.00008 2.50016 8.08341 2.50016 9.00008V15.6667H6.66683V17.3334C7.5835 17.3334 15.8335 17.3334 15.8335 17.3334C16.7502 17.3334 17.5002 16.5834 17.5002 15.6667V4.00008C17.5002 3.08341 16.7502 2.33341 15.8335 2.33341ZM15.8335 15.6667H6.66683H2.50016V9.00008H4.16683V7.33342H15.8335V15.6667ZM4.16683 5.66675V4.00008H15.8335V5.66675H4.16683Z" fill="#79747E"/>
<path d="M0.833496 14.0001L3.9585 17.3334L5.00016 16.2223L2.91683 14.0001L5.00016 11.7779L3.9585 10.6667L0.833496 14.0001Z" fill="#79747E"/>
<path d="M11.3612 8.47701V14.4015H9.98999V10.0232L8.63908 10.4179V9.37626L11.2351 8.47701H11.3612Z" fill="#79747E"/>
<path d="M0.833496 14.0001L3.9585 17.3334L5.00016 16.2223L2.91683 14.0001L5.00016 11.7779L3.9585 10.6667L0.833496 14.0001Z" fill="#79747E"/>
</svg>
