<svg width="20" height="20" viewBox="0 0 20 20" fill="none" xmlns="http://www.w3.org/2000/svg">
<path d="M15.8333 3.33341H15V1.66675H13.3333V3.33341H6.66667V1.66675H5V3.33341H4.16667C3.25 3.33341 2.5 4.08341 2.5 5.00008V16.6667C2.5 17.5834 3.25 18.3334 4.16667 18.3334H13.3333V16.6667H15.8333V10.0001H17.5V5.00008C17.5 4.08341 16.75 3.33341 15.8333 3.33341ZM13.3333 16.6667H4.16667V8.33342H15.8333V10.0001V16.6667H13.3333ZM4.16667 6.66675V5.00008H15.8333V6.66675H4.16667Z" fill="#79747E"/>
<path d="M19.1667 15.0001L16.0417 18.3334L15 17.2223L17.0833 15.0001L15 12.7779L16.0417 11.6667L19.1667 15.0001Z" fill="#79747E"/>
<path d="M12.1362 9.47681V10.2092L9.92269 15.4013H8.47412L10.6917 10.5347H7.86377V9.47681H12.1362Z" fill="#79747E"/>
<path d="M19.1667 15.0001L16.0417 18.3334L15 17.2223L17.0833 15.0001L15 12.7779L16.0417 11.6667L19.1667 15.0001Z" fill="#79747E"/>
</svg>
