<svg width="18" height="18" viewBox="0 0 18 18" fill="none" xmlns="http://www.w3.org/2000/svg">
<path d="M13.8333 2.33341H13V0.666748H11.3333V2.33341H4.66667V0.666748H3V2.33341H2.16667C1.25 2.33341 0.5 3.08341 0.5 4.00008V15.6667C0.5 16.5834 1.25 17.3334 2.16667 17.3334H11.3333V15.6667H13.8333V9.00008H15.5V4.00008C15.5 3.08341 14.75 2.33341 13.8333 2.33341ZM11.3333 15.6667H2.16667V7.33342H13.8333V9.00008V15.6667H11.3333ZM2.16667 5.66675V4.00008H13.8333V5.66675H2.16667Z" fill="#79747E"/>
<path d="M17.1667 14.0001L14.0417 17.3334L13 16.2223L15.0833 14.0001L13 11.7779L14.0417 10.6667L17.1667 14.0001Z" fill="#79747E"/>
<path d="M9.36108 8.47701V14.4015H7.98983V10.0232L6.63892 10.4179V9.37626L9.23494 8.47701H9.36108Z" fill="#79747E"/>
<path d="M17.1667 14.0001L14.0417 17.3334L13 16.2223L15.0833 14.0001L13 11.7779L14.0417 10.6667L17.1667 14.0001Z" fill="#79747E"/>
</svg>
